HIERARCHY
ROOT pelvis
{
  OFFSET 0 100 0
  CHANNELS 6 Xposition Yposition Zposition Zrotation Xrotation Yrotation
  JOINT pelvis_right_femur
  {
    OFFSET -10.78128 -3.44521 -0.5502486
    CHANNELS 3 Zrotation Xrotation Yrotation
    JOINT right_femur_tibia
    {
      OFFSET -0.8047443 -44.0398 -0.1307829
      CHANNELS 3 Zrotation Xrotation Yrotation
      JOINT right_tibia_foot
      {
        OFFSET 3.006224 -47.83518 -5
        CHANNELS 3 Zrotation Xrotation Yrotation
        End Site
        {
          OFFSET 0 -5 15
        }
      }
    }
  }
  JOINT pelvis_left_femur
  {
    OFFSET 10.78128 -3.44521 -0.5502486
    CHANNELS 3 Zrotation Xrotation Yrotation
    JOINT left_femur_tibia
    {
      OFFSET 0.8047443 -44.0398 -0.1307829
      CHANNELS 3 Zrotation Xrotation Yrotation
      JOINT left_tibia_foot
      {
        OFFSET -4.370144 -48.10324 -4.275266
        CHANNELS 3 Zrotation Xrotation Yrotation
        End Site
        {
          OFFSET 0 -5 15
        }
      }
    }
  }
  JOINT pelvis_spine1
  {
    OFFSET 0 6.468898 -3.129235
    CHANNELS 3 Zrotation Xrotation Yrotation
    JOINT spine1
    {
      OFFSET 0 23.15396 4.99043
      CHANNELS 3 Zrotation Xrotation Yrotation
      JOINT spine2
      {
        OFFSET 0 20.79997 -5.064912
        CHANNELS 3 Zrotation Xrotation Yrotation
        JOINT neck
        {
          OFFSET 0 14.38658 9.616178
          CHANNELS 3 Zrotation Xrotation Yrotation
          End Site
          {
            OFFSET 0 20 0
          }
        }
      }
      JOINT right_manubrium
      {
        OFFSET -5.722621 16.35077 3.967754
        CHANNELS 3 Zrotation Xrotation Yrotation
        JOINT right_clavicle
        {
          OFFSET -13.16364 1.694482 -4.693211
          CHANNELS 3 Zrotation Xrotation Yrotation
          JOINT right_humerus
          {
            OFFSET -28.5034 -0.3100689 -2.792744
            CHANNELS 3 Zrotation Xrotation Yrotation
            JOINT right_radius
            {
              OFFSET -25.15693 0.02248979 -1.271978
              CHANNELS 3 Zrotation Xrotation Yrotation
              End Site
              {
                OFFSET -15 0 0
              }
            }
          }
        }
      }
      JOINT left_manubrium
      {
        OFFSET 5.722621 16.35077 3.967754
        CHANNELS 3 Zrotation Xrotation Yrotation
        JOINT left_clavicle
        {
          OFFSET 13.16364 1.694482 -4.693211
          CHANNELS 3 Zrotation Xrotation Yrotation
          JOINT left_humerus
          {
            OFFSET 29.39168 -1.063119 -2.237045
            CHANNELS 3 Zrotation Xrotation Yrotation
            JOINT left_radius
            {
              OFFSET 24.59957 -0.9528479 0.9047498
              CHANNELS 3 Zrotation Xrotation Yrotation
              End Site
              {
                OFFSET 15 -0 -0
              }
            }
          }
        }
      }
    }
  }
}
MOTION
Frames: 7
Frame Time: 0.0416666666667
0 103.5113 0 1.604784 -2.784252 -0.008983191 2.413024 -13.39567 7.926663 -0 38.83105 -0 -5.100564 -15.53328 -3.074749 -7.070783 11.58994 -22.91011 -0 4.811362 -0 6.920115 -15.98412 25.86657 -2.08008 -3.147738 5.39307 2.561609 9.675808 -7.084244 1.670817 21.99294 5.958296 1.972598 -26.16565 10.16387 5.566088 -19.29026 10.83857 86.30014 34.78934 -19.40983 -0 0 15.04391 -5.222194 7.052919 3.96931 5.070849 -20.09174 -1.329266 -95.77669 27.07547 25.18971 0 0 -14.13988 9.472573 16.58381 4.18743
0.2867269 101.068 1.588979 1.302515 -2.037906 -0.1160453 3.041223 -15.0063 8.83697 -0 39.09379 -0 -4.993291 -16.25762 -3.6204 -6.981802 11.62352 -23.30172 -0 5.022593 -0 6.916182 -16.77717 26.35694 -2.120839 -3.183903 5.39566 2.555119 9.634161 -7.047675 1.679908 22.03659 5.9809 1.968052 -26.16825 10.21996 5.575669 -19.29925 10.81935 86.19506 34.77199 -19.26543 -0 0 15.12807 -5.242625 7.035617 3.950592 5.100606 -20.06818 -1.257803 -95.89607 27.00604 25.2761 0 0 -13.78877 9.588422 16.73097 4.03303
0.5358925 98.53843 3.300306 0.8891782 -0.9896901 -0.1696881 3.702356 -18.21517 8.400783 -0 35.7258 -0 -5.47213 -14.99622 -3.581529 -6.834754 11.74915 -22.77641 -0 5.286333 -0 6.337239 -18.48748 25.67649 -1.912099 -2.990611 5.085065 2.870079 9.781762 -7.647083 1.570322 21.31185 6.229744 2.244967 -26.55207 10.06771 5.593788 -19.14012 11.08622 86.92506 34.69236 -20.5575 -0 0 14.59616 -5.249592 7.655348 3.983881 5.494252 -20.53051 -1.246316 -94.61982 26.45417 23.75654 0 0 -16.40989 9.580568 15.68831 3.9626
0.7539439 95.94523 5.095203 0.5311107 -0.06876933 -0.1563253 4.299025 -20.82795 8.307917 -0 33.32485 -0 -5.72609 -14.21089 -3.636982 -6.697208 11.84957 -22.46094 -0 5.475762 -0 5.778038 -19.86576 25.16012 -1.77885 -2.92688 4.895989 3.081045 9.842649 -8.057627 1.509518 20.83365 6.361073 2.380326 -26.83401 9.987766 5.575096 -19.0813 11.24143 87.42741 34.56401 -21.45304 -0 0 14.36494 -5.123622 7.989951 3.955274 5.75726 -20.84131 -1.198698 -93.88669 26.22658 22.88669 0 0 -18.17802 9.470381 15.09931 4.065368
0.953684 93.27366 7.087741 0.1678706 1.009763 -0.05679378 4.960285 -23.86609 8.071881 -0 30.20982 -0 -5.923995 -13.00352 -3.509258 -6.596365 11.98267 -21.89659 -0 5.734805 -0 5.505237 -21.16888 24.50547 -1.617506 -2.839054 4.71062 3.288137 9.922553 -8.474899 1.433461 20.34012 6.487644 2.524384 -27.08139 9.862245 5.543786 -19.00309 11.39912 88.00553 34.46489 -22.43339 -0 0 14.03225 -5.033617 8.33988 3.973367 5.997235 -21.18465 -1.218236 -93.0682 26.03131 21.95809 0 0 -20.19584 9.281723 14.3794 4.297999
1.14562 90.50517 9.367951 -0.1951103 2.093273 0.147616 5.613849 -26.94414 7.735348 -0 26.80691 -0 -6.094247 -11.46573 -3.248564 -6.491367 12.16952 -21.1725 -0 6.13106 -0 5.213753 -22.33294 23.65659 -1.459476 -2.771436 4.556916 3.468775 9.999527 -8.855179 1.358185 19.89696 6.588301 2.643129 -27.28193 9.72763 5.502289 -18.93964 11.53657 88.58005 34.35924 -23.38137 -0 0 13.71826 -4.940611 8.634265 3.996787 6.196408 -21.51931 -1.268505 -92.34173 25.92964 21.16181 0 0 -22.12252 9.018406 13.69882 4.657108
1.338783 87.63518 12.03793 -0.5871618 3.169363 0.4754422 6.296997 -30.02506 7.342109 -0 23.23059 -0 -6.256282 -9.561576 -2.869723 -6.352819 12.43663 -20.29201 -0 6.811274 -0 4.783881 -23.31187 22.55996 -1.303708 -2.706439 4.434867 3.616667 10.08813 -9.190051 1.278876 19.51363 6.669563 2.748973 -27.41201 9.571596 5.459256 -18.87637 11.65866 89.15251 34.26683 -24.28913 -0 0 13.38266 -4.896241 8.891112 4.043757 6.346169 -21.84801 -1.371918 -91.68627 25.89697 20.47408 0 0 -23.93633 8.689722 13.02925 5.131741
